<svg width="1987" height="1394" viewBox="0 0 1987 1394" fill="none" xmlns="http://www.w3.org/2000/svg">
    <path opacity="0.85" d="M368.71 22.6568C390.683 22.8532 411.434 27.1517 429.13 48.95C452.107 77.2506 465.417 113.232 492.495 138.259C506.242 150.959 522.782 159.229 541.569 160.821C559.548 162.349 584.489 151.002 600.243 162.894C612.92 172.473 608.098 187.551 595.246 194.337C567.207 209.153 533.233 192.94 504.693 188.795C431.727 178.168 354.244 183.296 290.442 223.51C248.918 249.694 215.533 289.298 169.711 306.907C146.931 315.657 103.967 315.656 102.309 282.49C101.502 266.561 112.041 251.767 125.417 243.083C138.792 234.399 154.699 230.689 170.279 227.307C185.858 223.925 201.787 220.587 215.512 212.469C231.811 202.825 243.616 187.289 257.428 174.306C274.469 158.29 292.995 151.984 316.037 151.853C329.456 151.766 364.063 165.862 372.769 153.643C380.58 142.667 368.863 131.866 360.244 126.477C329.347 107.166 288.936 107.057 256.293 122.113C221.316 138.259 195.394 170.771 155.441 176.575C103.444 184.147 89.5662 131.081 98.5997 90.4299C106.608 54.3395 122.187 28.0463 157.688 14.6924C182.869 5.24433 211.497 -1.7817 238.619 0.400306C257.995 1.97135 273.728 11.5286 291.402 18.0528C316.997 27.5227 343.661 22.4168 368.732 22.6568H368.71Z" fill="#171230"/>
    <path opacity="0.85" d="M93.957 866.288C125.814 866.703 157.65 861.204 187.5 851.319C201.072 846.825 214.513 841.282 225.183 832.554C234.544 824.895 241.395 815.055 246.392 804.668C251.52 794.042 254.858 782.324 252.829 770.913C250.8 759.501 242.486 748.482 230.158 744.772C215.277 740.321 199.457 747.063 185.099 752.671C152.326 765.501 116.126 773.247 80.6686 768.861C50.7315 765.152 21.5362 751.776 3.4474 730.611C7.35319 709.62 14.7284 689.24 26.3148 670.802C31.7044 679.661 38.9705 687.625 46.1493 695.371C51.6043 701.241 57.2338 707.263 64.7399 710.929C73.1407 715.031 83.0688 715.773 92.6478 715.533C125.4 714.726 156.559 703.423 188.765 697.99C220.972 692.557 258.066 694.346 281.173 715.031C296.927 729.127 303.342 750.118 301.291 769.909C299.24 789.7 289.465 808.334 276.656 824.634C264.263 840.409 248.879 854.396 231.009 865.262C198.301 885.184 157.366 894.13 118.003 890.006C91.1422 887.192 65.1109 878.529 38.0758 878.18C36.6139 878.18 35.1519 878.18 33.69 878.224C29.4787 872.485 25.7039 866.506 22.3217 860.331C46.1711 862.382 69.9986 865.983 93.9788 866.288H93.957Z" fill="#171230"/>
    <path opacity="0.85" d="M1877.62 536.98C1845.1 554.116 1805.74 535.355 1772.66 530.554C1688.08 518.244 1598.25 524.202 1524.33 570.759C1476.21 601.067 1437.51 646.91 1384.38 667.295C1357.98 677.414 1308.19 677.439 1306.27 639.031C1305.35 620.591 1317.53 603.48 1333.04 593.41C1348.54 583.365 1366.98 579.081 1385.05 575.142C1403.12 571.227 1421.58 567.362 1437.48 557.957C1456.39 546.804 1470.04 528.806 1486.07 513.788C1505.84 495.249 1527.31 487.961 1554 487.789C1569.56 487.691 1609.69 504.014 1619.77 489.857C1628.82 477.153 1615.24 464.646 1605.25 458.417C1569.44 436.062 1522.6 435.939 1484.79 453.37C1444.23 472.057 1414.21 509.676 1367.89 516.422C1307.62 525.187 1291.55 463.76 1302 416.686C1311.29 374.905 1329.34 344.45 1370.48 329.013C1399.64 318.057 1432.85 309.933 1464.28 312.469C1486.73 314.29 1504.97 325.345 1525.43 332.903C1555.09 343.859 1586 337.95 1615.06 338.221C1640.53 338.443 1664.56 343.416 1685.1 368.652C1711.72 401.421 1727.15 443.054 1758.56 472.032C1774.48 486.73 1793.66 496.308 1815.43 498.154C1836.26 499.927 1865.17 486.78 1883.44 500.542C1898.13 511.646 1892.53 529.077 1877.64 536.931L1877.62 536.98ZM1619.58 368.652C1608.61 363.309 1595.76 363.235 1583.73 365.353C1571.73 367.445 1560.17 371.557 1548.29 374.339C1532.68 377.958 1516.54 379.239 1500.56 378.057C1472.56 376.013 1444.06 366.682 1417.02 374.142C1401.07 378.549 1386.82 388.865 1377.68 402.628C1369.99 414.199 1366.59 431.163 1376.37 441.011C1383.42 448.101 1395.03 448.692 1404.47 445.418C1413.91 442.143 1421.85 435.693 1429.99 429.882C1439.5 423.063 1449.53 416.981 1459.99 411.688C1465.02 409.127 1470.19 406.764 1475.66 405.459C1481.83 404.006 1488.24 403.982 1494.57 403.957C1518.26 403.859 1540.25 405.336 1562.61 413.559C1580.65 420.182 1598.72 416.514 1617.46 414.051C1623.82 413.214 1630.82 411.91 1634.81 406.862C1636.86 404.253 1637.84 400.954 1638.09 397.654C1639.05 385.517 1630.52 373.994 1619.55 368.676L1619.58 368.652Z" fill="#171230"/>
    <path opacity="0.85" d="M1218.98 657.881C1240.86 660.826 1260.72 672.238 1278.59 685.221C1314.11 711.056 1344.14 743.742 1378.87 770.625C1413.63 797.485 1455.53 818.956 1499.39 816.469C1547.13 813.785 1588.48 783.673 1625.33 753.191C1663.45 721.661 1700.66 687.818 1726.93 645.901C1750.75 607.891 1763.76 563.945 1759.5 518.996C1758.7 510.442 1748.51 406.535 1773.97 419.256C1855.18 459.776 1915.12 534.554 1955.01 616.073C1975.76 658.491 1992.06 705.666 1984.53 752.274C1977.01 798.882 1938.97 843.264 1891.76 843.766C1862.28 844.071 1835.2 828.121 1806.26 822.491C1744.73 810.534 1684.79 845.795 1632.97 881.056C1581.15 916.317 1524.65 954.764 1462.14 950.073C1430.33 947.695 1400.59 934.123 1371.61 920.769C1290.33 883.304 1203.27 840.427 1162.81 760.588C1150 735.32 1143.33 702.939 1159.87 679.941C1172.76 662.005 1197.07 654.957 1218.96 657.902L1218.98 657.881ZM1209.53 778.524C1217.04 789.434 1228.43 797.027 1240.03 803.399C1284.55 827.815 1327.79 853.039 1371.13 879.965C1396.53 895.763 1421.38 912.499 1452.8 910.251C1469.76 909.029 1512.22 893.101 1491.14 871.172C1481.67 861.331 1466.09 856.072 1453.65 851.403C1429.28 842.195 1399.52 839.053 1376.82 826.2C1351.43 811.821 1330.85 790.459 1312.06 768.443C1290.92 743.655 1251.77 699.513 1215.29 721.202C1197.33 731.872 1198.95 763.206 1209.53 778.524Z" fill="#171230"/>
    <path d="M1135.25 1103.82C1159.39 1084.14 1178.48 1091.86 1205.01 1106.57C1219.06 1114.36 1233.49 1122.73 1242.63 1135.96C1251.75 1149.18 1253.93 1168.62 1243.26 1180.65C1226.68 1199.35 1194.1 1188.41 1172.81 1201.51C1164.32 1206.74 1158.25 1215.49 1149.28 1219.83C1136.17 1226.18 1119.41 1221.03 1109.72 1210.15C1100.01 1199.26 1096.57 1183.92 1097.29 1169.36C1098.66 1141.13 1114.28 1120.92 1135.28 1103.82H1135.25Z" fill="#171230"/>
    <path d="M1172.81 1201.51C1164.32 1206.74 1158.25 1215.49 1149.28 1219.83C1136.17 1226.18 1119.41 1221.03 1109.72 1210.15C1100.04 1199.26 1096.57 1183.92 1097.29 1169.36C1098.66 1141.13 1114.29 1120.92 1135.28 1103.82C1159.41 1084.14 1178.5 1091.86 1205.03 1106.57C1219.09 1114.36 1233.51 1122.73 1242.65 1135.96C1251.77 1149.18 1253.96 1168.62 1243.29 1180.65C1226.7 1199.35 1194.12 1188.41 1172.83 1201.51H1172.81Z" fill="#171230"/>
    <path d="M1172.81 1201.51C1164.32 1206.74 1158.25 1215.49 1149.28 1219.83C1136.17 1226.18 1119.41 1221.03 1109.72 1210.15C1100.04 1199.26 1096.57 1183.92 1097.29 1169.36C1098.66 1141.13 1114.29 1120.92 1135.28 1103.82C1159.41 1084.14 1178.5 1091.86 1205.03 1106.57C1219.09 1114.36 1233.51 1122.73 1242.65 1135.96C1251.77 1149.18 1253.96 1168.62 1243.29 1180.65C1226.7 1199.35 1194.12 1188.41 1172.83 1201.51H1172.81Z" fill="#171230"/>
    <path opacity="0.85" d="M1309.9 1267.36C1230.13 1405.37 1038 1387.08 904.42 1380.69C763.964 1373.97 602.43 1388.68 445.958 1393.91C450.781 1389.14 455.385 1384.14 459.727 1378.95C479.234 1355.6 490.711 1329.55 520.103 1316.89C552.266 1303.03 587.898 1302.9 622.199 1299.89C634.658 1298.8 647.598 1297.12 658.006 1290.18C668.414 1283.24 675.309 1269.47 670.552 1257.91C665.359 1245.32 649.845 1241.09 636.295 1239.65C591.367 1234.89 545.087 1243.73 505.047 1264.67C477.401 1279.14 450.933 1299.76 419.731 1300.83C394.572 1301.68 371.094 1289.51 347.572 1280.56C316.435 1268.71 286.607 1267.88 259.201 1288.44C255.033 1291.58 250.822 1294.98 246.654 1298.67C220.884 1321.52 197.122 1354.44 196.839 1388.79C187.194 1387.8 177.615 1386.76 168.167 1385.51C148.224 1382.94 2.74933 1362.28 0 1371.55C34.4975 1254.68 151.54 1181.5 267.645 1144.49C355.798 1116.41 450.541 1108.27 541.814 1124.68C639.655 1142.26 720.346 1195.96 810.332 1234.45C845.026 1249.29 889.298 1264.78 926.982 1251.93C966.825 1238.36 962.57 1211.24 934.248 1185.05C840.662 1098.45 708.541 1067.46 581.505 1056.45C454.468 1045.43 325.272 1050.9 200.963 1022.56C145.911 1010.01 90.5096 989.785 50.1425 950.269C39.5161 939.883 30.2208 928.362 22.1692 916.033C23.9802 915.99 25.7913 915.946 27.6024 915.99C61.0089 916.47 93.1498 928.493 126.338 932.42C174.975 938.159 225.532 925.721 265.943 898.054C288.003 882.954 307.008 863.534 322.326 841.627C338.124 819 350.212 793.099 352.743 765.628C355.274 738.156 347.354 708.983 327.89 689.41C299.349 660.695 253.505 658.208 213.749 665.735C173.971 673.285 135.481 688.952 95.0264 690.087C83.1999 690.414 70.9152 689.367 60.5507 683.672C51.2771 678.587 44.3165 670.23 37.596 662.07C28.737 651.312 19.769 640.271 13.1139 627.965C16.1032 622.619 19.2671 617.382 22.7147 612.298C74.6682 535.47 170.153 500.972 261.492 484.825C382.331 463.463 506.335 465.907 628.352 478.934C661.912 482.512 705.072 481.618 717.88 450.393C727.175 427.744 713.08 401.8 694.62 385.74C640.506 338.631 560.099 346.093 488.377 343.933C475.088 343.54 458.985 340.769 454.315 328.31C452.286 322.899 453.05 316.876 454.381 311.247C465.422 264.334 517.179 231.123 564.441 240.593C575.919 242.906 586.96 247.336 598.568 248.885C602.517 249.409 606.445 249.583 610.394 249.518C623.246 249.3 636.098 246.419 648.798 244.019C801.145 215.151 965.254 255.867 1086.44 352.596C1151.36 404.397 1207.24 482.731 1192.9 564.534C1180.9 633.136 1120.07 686.028 1052.91 704.466C985.765 722.904 913.759 712.016 847.295 691.221C780.831 670.449 717.727 640.053 651.525 618.43C595.426 600.101 523.311 592.704 487.155 639.333C450.584 686.508 477.139 756.049 513.928 803.027C578.341 885.289 671.992 944.159 774.023 966.547C926.371 999.997 1103.07 943.374 1246.93 1014.51C1341.58 1061.31 1360.35 1180.03 1309.92 1267.27L1309.9 1267.36ZM836.538 350.261C845.724 357.003 856.808 360.516 867.762 363.659C897.415 372.168 927.745 378.671 956.264 390.454C984.761 402.236 1011.88 419.954 1028.49 445.942C1033.88 454.386 1038.2 464.184 1036.98 474.134C1036.56 477.45 1035.36 480.92 1032.61 482.774C1029.62 484.804 1025.67 484.411 1022.12 483.843C996.61 479.763 972.346 470.053 946.991 465.1C921.658 460.147 893.553 460.583 872.257 475.159C866.409 479.152 861.129 484.28 858.227 490.717C855.019 497.83 854.954 505.991 856.285 513.671C860.212 536.102 875.595 555.348 894.383 568.243C920.196 585.961 953.078 593.031 983.888 587.467C991.896 586.027 1001.41 581.837 1001.74 573.698C1001.96 568.265 997.722 563.705 993.315 560.497C980.244 550.94 963.858 547.405 949.173 540.597C934.488 533.79 920.196 521.33 919.803 505.162C919.672 499.925 921.505 494.121 926.153 491.72C927.942 490.804 929.971 490.455 931.957 490.215C959.559 486.658 987.249 494.928 1013.21 504.922C1039.18 514.915 1064.8 526.807 1092.29 531.018C1103.38 532.72 1116.93 532.022 1122.77 522.465C1125.65 517.774 1125.89 511.991 1126.02 506.493C1126.33 493.422 1126.35 480.134 1122.95 467.5C1117.54 447.295 1103.86 430.362 1089.45 415.176C1069.14 393.792 1046.56 374.59 1022.25 357.898C979.59 328.572 931.651 306.905 881.421 294.358C867.435 290.867 827.111 275.964 818.231 291.172C807.539 309.501 821.373 339.155 836.494 350.261H836.538ZM1242.63 1135.96C1233.51 1122.73 1219.06 1114.36 1205.01 1106.57C1178.48 1091.86 1159.39 1084.16 1135.25 1103.82C1114.26 1120.92 1098.66 1141.13 1097.27 1169.36C1096.55 1183.92 1099.99 1199.26 1109.7 1210.15C1119.41 1221.03 1136.15 1226.18 1149.26 1219.83C1158.23 1215.49 1164.3 1206.72 1172.78 1201.51C1194.08 1188.41 1226.64 1199.32 1243.24 1180.65C1253.91 1168.62 1251.73 1149.18 1242.61 1135.96H1242.63Z" fill="#171230"/>
</svg>
