<svg width="45" height="23" viewBox="0 0 45 23" fill="none" xmlns="http://www.w3.org/2000/svg">
<path d="M4.964 5.497C6.579 6.381 7.021 8.88 6.919 10.546C6.834 12.161 6.29 14.116 4.794 14.983C2.958 16.037 1.088 14.541 0.646 12.756C0.408 11.821 0.374 10.818 0.323 9.866C0.289 8.965 0.255 8.047 0.357 7.146C0.476 6.177 0.901 5.225 1.785 4.749C2.72 4.222 3.723 4.477 4.556 5.072C4.726 5.191 4.862 5.327 4.964 5.497ZM2.873 6.823C2.856 6.823 2.873 6.823 2.873 6.823V6.823ZM4.539 10.818C4.624 10.138 4.573 9.458 4.403 8.812C4.335 8.489 4.08 7.639 3.859 7.571C3.468 7.452 3.23 7.214 3.111 6.925C3.043 6.857 2.958 6.806 2.907 6.823C2.89 6.823 2.89 6.823 2.89 6.823C2.805 6.874 2.737 7.146 2.72 7.282C2.584 7.979 2.652 8.761 2.669 9.475C2.686 10.206 2.72 10.954 2.839 11.685C2.907 12.178 3.043 12.637 3.366 12.943C3.332 12.909 3.604 13.011 3.451 12.994C3.57 13.011 3.553 12.977 3.655 12.909C3.74 12.858 3.91 12.671 4.012 12.518C4.318 12.025 4.471 11.413 4.539 10.818Z" fill="white"/>
<path d="M25.219 6.772C25.202 9.288 25.27 11.804 25.457 14.32C25.508 14.966 24.879 15.493 24.284 15.493C23.604 15.493 23.145 14.949 23.094 14.32C22.924 11.872 22.839 9.407 22.856 6.942C22.346 7.01 21.836 7.112 21.343 7.231C20.714 7.367 20.068 7.044 19.881 6.398C19.728 5.803 20.085 5.089 20.714 4.953C22.72 4.494 24.777 4.307 26.834 4.46C27.48 4.494 28.024 4.953 28.024 5.633C28.024 6.245 27.48 6.857 26.834 6.806C26.29 6.772 25.746 6.755 25.219 6.772ZM34.7977 8.217C35.3247 10.121 35.6137 12.11 35.6477 14.082C35.6817 15.612 33.3187 15.595 33.2847 14.082C33.2677 13.368 33.2167 12.654 33.1317 11.957C32.1967 12.076 31.2787 12.314 30.3947 12.637C30.4797 13.079 30.5647 13.504 30.6157 13.946C30.7007 14.592 30.0207 15.136 29.4427 15.136C28.7457 15.136 28.3377 14.575 28.2527 13.946C28.0147 12.025 27.3517 10.223 27.7087 8.268C28.0147 6.517 29.3577 4.936 31.1597 4.715C32.2137 4.562 33.2167 4.936 33.8287 5.803C34.3387 6.5 34.5597 7.401 34.7977 8.217ZM29.9867 10.291C30.8707 9.985 31.7887 9.781 32.7237 9.645C32.7067 9.594 32.7067 9.543 32.6897 9.509C32.5197 8.829 32.3497 8.081 32.0777 7.469C31.9247 7.095 31.8057 6.976 31.4317 7.044C30.3437 7.248 29.9527 8.506 29.9357 9.526C29.9357 9.781 29.9527 10.036 29.9867 10.291ZM43.6769 12.96C44.2039 13.334 44.4419 13.98 44.1019 14.575C43.7959 15.085 42.9969 15.374 42.4869 15C41.4499 14.252 40.4979 13.402 39.6479 12.467C39.1039 13.266 38.5429 14.082 37.9819 14.864C37.6079 15.391 36.9619 15.646 36.3669 15.289C35.8569 15 35.5679 14.201 35.9419 13.674C36.6729 12.637 37.4039 11.583 38.1009 10.529C37.2849 9.356 36.6049 8.064 36.0779 6.704C35.8399 6.109 36.3329 5.412 36.9109 5.259C37.5569 5.072 38.1179 5.48 38.3559 6.075C38.6619 6.874 39.0529 7.656 39.4949 8.387C40.1919 7.282 40.8889 6.16 41.5519 5.021C42.3169 3.712 44.3569 4.902 43.5919 6.211C42.7419 7.639 41.8749 9.05 40.9739 10.461C41.7729 11.396 42.6909 12.246 43.6769 12.96Z" fill="white"/>
<path d="M9.01531 16.046C8.19131 16.026 7.73335 15.1953 8.16624 14.4465C8.92505 13.1345 9.67383 11.8141 10.4962 10.5421C11.7714 8.56823 13.1019 6.63109 14.4122 4.67891C14.4975 4.55355 14.5961 4.43321 14.7047 4.32792C15.1075 3.93514 15.6273 3.89335 16.0251 4.21259C16.453 4.5569 16.5499 5.13018 16.234 5.59149C15.5337 6.6127 14.7849 7.60217 14.1231 8.64678C12.7158 10.8664 11.3502 13.1111 9.97301 15.3491C9.65043 15.8739 9.41644 16.0544 9.01698 16.0444L9.01531 16.046Z" fill="white"/>
<path d="M11.6177 5.95588C11.6177 6.71469 11.031 7.32141 10.2872 7.32977C9.55516 7.33812 8.96015 6.72639 8.9568 5.96257C8.95346 5.1486 9.42981 4.52183 10.075 4.57699C10.8605 4.64384 11.6076 5.06169 11.6177 5.95755V5.95588Z" fill="white"/>
<path d="M15.512 13.315C15.5037 14.0287 15.1226 14.5435 14.4507 14.739C14.0128 14.8677 13.6234 14.7641 13.2991 14.4499C12.8562 14.0203 12.8161 13.3886 13.1788 12.8069C13.6685 12.023 14.0863 11.8342 14.7766 12.0832C15.263 12.2604 15.5204 12.6882 15.512 13.3133V13.315Z" fill="white"/>
</svg>
