<svg width="600" height="116" viewBox="0 0 600 116" fill="none" xmlns="http://www.w3.org/2000/svg">
    <path d="M34.5 65.1C34.4 65.6 34.3 66.1 34.2 66.6C32.9 71.2 31.4 75.8 29.7 80.2C27.9 84.8 25.6 90.5 19.7 90.5C13.1 90.5 11.5 84.6 10.3 79.4C9.1 74.6 8.1 69.8 7 64.9C4.9 55.2 3 45.5 1.3 35.7C0.7 32 2.3 28.2 6.2 27.1C9.6 26.2 14.1 28.3 14.7 32C16.2 40.2 17.7 48.4 19.4 56.6C19.9 58.7 20.3 60.8 20.8 62.9C21.2 61.5 21.5 60 21.9 58.6C23.7 51 25.1 43.3 26.5 35.7C27 32.7 30.3 30.6 33.2 30.6C36.5 30.6 38.8 32.8 39.9 35.7C43.5 44.9 44.8 56 49.3 65C52.3 53.9 53.8 42.5 53.5 30.8C53.3 21.9 67.2 21.9 67.4 30.8C67.8 48.1 64.8 65.4 58.5 81.5C56.5 86.6 51.1 88.2 46.9 84.6C40.7 79.3 37.1 72.5 34.5 65.1ZM84.3852 46.8C87.8852 46.6 91.3852 46.2 94.7852 45.8C95.1852 39.8 95.6852 33.8 96.2852 27.8C96.7852 24.1 99.1852 20.9 103.285 20.9C106.685 20.9 110.685 24.1 110.185 27.8C109.485 34.4 108.985 41 108.585 47.5C109.085 48.2 109.385 48.9 109.685 49.7C110.185 51.7 109.685 54.2 108.285 56C108.085 66.3 108.385 76.5 109.185 86.8C109.485 90.5 105.785 93.7 102.185 93.7C98.2852 93.7 95.5852 90.5 95.2852 86.8C94.5852 77.8 94.2852 68.7 94.3852 59.7C91.1852 60.1 87.8852 60.4 84.6852 60.7C84.7852 67.8 84.8852 75 85.0852 82.1C85.2852 91.1 71.3852 91 71.1852 82.1C70.8852 64.8 70.4852 47.5 70.1852 30.1C69.9852 21.2 83.8852 21.2 84.0852 30.1C84.1852 35.7 84.2852 41.3 84.3852 46.8ZM154.842 47.1C157.942 58.3 159.642 70 159.842 81.6C160.042 90.6 146.142 90.5 145.942 81.6C145.842 77.4 145.542 73.2 145.042 69.1C139.542 69.8 134.142 71.2 128.942 73.1C129.442 75.7 129.942 78.2 130.242 80.8C130.742 84.6 126.742 87.8 123.342 87.8C119.242 87.8 116.842 84.5 116.342 80.8C114.942 69.5 111.042 58.9 113.142 47.4C114.942 37.1 122.842 27.8 133.442 26.5C139.642 25.6 145.542 27.8 149.142 32.9C152.142 37 153.442 42.3 154.842 47.1ZM126.542 59.3C131.742 57.5 137.142 56.3 142.642 55.5C142.542 55.2 142.542 54.9 142.442 54.7C141.442 50.7 140.442 46.3 138.842 42.7C137.942 40.5 137.242 39.8 135.042 40.2C128.642 41.4 126.342 48.8 126.242 54.8C126.242 56.3 126.342 57.8 126.542 59.3ZM186.68 38.6C186.58 53.4 186.98 68.2 188.08 83C188.38 86.8 184.68 89.9 181.18 89.9C177.18 89.9 174.48 86.7 174.18 83C173.18 68.6 172.68 54.1 172.78 39.6C169.78 40 166.78 40.6 163.88 41.3C160.18 42.1 156.38 40.2 155.28 36.4C154.38 32.9 156.48 28.7 160.18 27.9C171.98 25.2 184.08 24.1 196.18 25C199.98 25.2 203.18 27.9 203.18 31.9C203.18 35.5 199.98 39.1 196.18 38.8C192.98 38.6 189.78 38.5 186.68 38.6ZM240.086 25.5C244.086 26.6 245.486 30.3 244.986 34C242.686 50.1 241.786 66.4 241.986 82.6C242.086 91.6 228.186 91.5 228.086 82.6C227.886 65.1 229.186 47.7 231.586 30.3C232.086 26.6 236.886 24.6 240.086 25.5ZM272.017 41C268.117 36.8 261.417 39.2 260.817 45.4C260.517 48.5 261.917 51.4 264.417 53.5C267.117 55.8 271.017 56.5 274.617 58.1C284.017 62.3 287.517 73 281.417 81.5C274.317 91.3 262.517 90.3 252.017 88C248.317 87.2 246.217 83 247.117 79.5C248.217 75.8 252.017 73.8 255.717 74.6C258.117 75.2 260.617 75.8 263.217 75.9C264.917 75.9 267.217 75.7 268.217 75.2C269.317 74.6 270.317 73.3 270.617 72.7C270.917 71.9 270.917 72.4 270.717 71.6C271.017 72.8 270.117 71.4 270.517 71.7C269.817 71.1 268.517 70.5 267.417 70.1C265.017 69.2 262.617 68.4 260.317 67.3C256.017 65.2 252.317 61.7 250.017 57.6C244.817 48.7 246.317 36.9 254.117 30C262.017 23.1 274.617 23.4 281.817 31.2C287.817 37.8 278.017 47.6 272.017 41ZM402.524 76.4C395.724 83.7 386.424 89.9 376.024 86.1C365.724 82.3 360.524 72.6 359.224 62.1C358.124 52.7 359.624 42.1 365.924 34.6C371.724 27.6 383.124 24.8 390.924 30.2C394.024 32.3 395.524 36.2 393.424 39.7C391.624 42.7 387.024 44.3 383.924 42.2C383.924 42.2 382.624 41.4 382.724 41.4C382.424 41.3 381.724 41.2 382.324 41.2C380.924 41.1 380.824 41.1 379.424 41.6C377.924 42.1 376.524 43.1 375.424 44.9C372.624 49.5 372.424 55.9 373.024 61.1C373.624 65.9 375.724 71.2 380.524 73C385.324 74.8 389.624 69.9 392.724 66.6C398.824 60 408.624 69.8 402.524 76.4ZM436.627 86.4C425.227 88.4 414.227 83.3 408.427 73.3C402.727 63.5 403.227 51.1 409.427 41.6C415.927 31.8 428.227 24 439.927 29.8C441.627 30.6 442.727 32.3 443.127 34.1C451.627 41.2 457.927 51.3 456.927 62.8C455.927 74.3 448.327 84.3 436.627 86.4ZM428.027 72.5C434.727 74.4 442.027 70.6 443.127 62.8C444.127 54.9 438.627 47.6 432.227 43.2C431.527 42.7 430.927 42.2 430.427 41.6C428.327 42 425.927 43.8 424.527 45.1C421.527 47.9 419.327 51.4 418.527 55.5C417.127 62.4 421.027 70.6 428.027 72.5ZM490.045 86.4C478.645 88.4 467.645 83.3 461.845 73.3C456.145 63.5 456.645 51.1 462.845 41.6C469.345 31.8 481.645 24 493.345 29.8C495.045 30.6 496.145 32.3 496.545 34.1C505.045 41.2 511.345 51.3 510.345 62.8C509.345 74.3 501.745 84.3 490.045 86.4ZM481.445 72.5C488.145 74.4 495.445 70.6 496.545 62.8C497.545 54.9 492.045 47.6 485.645 43.2C484.945 42.7 484.345 42.2 483.845 41.6C481.745 42 479.345 43.8 477.945 45.1C474.945 47.9 472.745 51.4 471.945 55.5C470.545 62.4 474.445 70.6 481.445 72.5ZM542.263 73.6C545.863 72.4 549.863 74.9 550.863 78.4C551.863 82.1 549.563 85.8 545.963 86.9C539.263 89.2 531.963 90.3 524.963 89.8C520.663 89.5 516.763 88.1 514.863 84C513.463 81 513.563 77.4 513.363 74.2C512.363 60 512.463 45.8 513.563 31.6C513.863 27.9 516.563 24.7 520.563 24.7C524.063 24.7 527.763 27.9 527.463 31.6C526.863 39.9 526.463 48.2 526.563 56.5C526.563 60.6 526.663 64.7 526.863 68.9C526.963 71 526.963 73.7 527.163 76C527.763 76 528.263 76 528.863 76C530.263 76 531.763 75.9 533.263 75.7C536.363 75.4 539.363 74.5 542.263 73.6ZM567.622 74C576.522 74 576.522 87.8 567.622 87.8C558.622 87.8 558.622 74 567.622 74ZM593.722 15.4C597.122 25.2 592.222 35.4 585.622 42.5C582.322 46.1 578.422 49.2 575.122 52.8C574.722 53.3 574.222 54 573.822 54.5C573.622 54.6 573.522 54.7 573.422 54.8C573.422 55 573.522 55.2 573.522 55.6C574.622 58.6 574.722 61.8 574.222 65C573.522 68.7 569.022 70.7 565.622 69.8C561.822 68.7 560.222 65 560.822 61.3C560.922 60.5 559.922 58.4 559.822 57.4C559.322 54.5 559.722 51.8 560.922 49.2C562.522 45.7 565.322 42.8 568.122 40.2C572.622 35.7 578.822 31.2 580.422 25.1C581.022 22.9 581.122 20.5 580.122 19C579.122 17.4 576.522 16.5 574.222 16.4C571.522 16.3 568.022 16.6 566.322 18.4C564.922 19.8 564.422 21.8 564.822 23.6C566.922 32.3 553.522 36 551.522 27.3C548.922 16.4 555.522 5.6 566.522 3.19999C577.122 0.899994 589.822 4.19999 593.722 15.4ZM573.322 55.1C573.322 55.2 573.322 55.3 573.322 55.5C573.322 55.3 573.322 55.2 573.322 55.1Z" fill="white"/>
    <path d="M320.87 92.2691C319.941 91.8952 319.091 91.5797 318.242 91.2175C315.806 90.1892 313.313 89.2544 310.945 88.0626C307.569 86.38 306.186 82.6642 307.478 79.2522C308.849 75.6533 312.35 73.9123 316.032 75.1626C318.627 76.0506 321.097 77.3009 323.703 78.1305C327.34 79.2873 331.033 79.9066 334.829 78.6797C337.503 77.815 339.112 75.9221 340.029 73.3397C340.789 71.1897 340.165 69.1449 338.069 67.7895C336.245 66.621 334.228 65.7329 332.212 64.9384C326.547 62.7299 320.984 60.2995 316.372 56.1047C310.05 50.3674 307.025 43.2864 308.577 34.5228C309.665 28.4467 313.03 23.913 317.992 20.5712C318.774 20.0454 319.624 19.613 320.678 18.9937C320.78 18.0823 320.893 17.0424 320.995 15.9908C321.221 13.6655 321.335 11.3285 321.686 9.02661C322.264 5.26411 325.482 2.62335 328.869 3.044C332.087 3.4296 335.554 6.22226 335.157 10.6508C334.92 13.35 334.818 16.0492 334.682 18.3861C337.378 20.2674 339.871 21.6812 342.001 23.5508C346.272 27.325 345.207 33.2025 340.041 35.5511C337.458 36.7196 335.237 36.0302 333.22 34.2775C331.634 32.8987 329.946 32.069 327.816 32.1859C323.204 32.4429 320.428 37.0468 322.332 41.3701C323.51 44.0459 325.516 46.009 327.929 47.3761C330.727 48.9536 333.73 50.1454 336.619 51.5476C339.338 52.868 342.16 54.0481 344.731 55.6489C357.047 63.3492 356.413 78.6914 346.816 87.2563C343.462 90.2476 339.531 92.0588 335.022 93.1688C333.424 96.8262 333.209 100.729 333.685 104.737C333.843 106.092 334.092 107.436 334.104 108.791C334.126 112.484 331.6 115.522 328.291 115.942C324.756 116.398 321.561 114.108 320.757 110.416C319.624 105.228 319.658 99.9927 320.474 94.7579C320.587 93.9984 320.712 93.2506 320.87 92.2574V92.2691Z" fill="white"/>
</svg>
