<svg width="23" height="23" viewBox="0 0 23 23" fill="none" xmlns="http://www.w3.org/2000/svg">
    <path d="M8.13665 10.3802C8.61665 7.16019 9.09665 3.94019 9.57665 0.720191H8.46666C9.47666 3.60019 10.4866 6.4702 11.4966 9.3502C11.5766 9.5902 11.7867 9.78019 12.0467 9.77019C15.2767 9.69019 18.5067 9.62018 21.7267 9.54018C21.6267 9.18018 21.5366 8.83019 21.4366 8.47019C19.0766 10.0002 16.7166 11.5402 14.3666 13.0702C14.1566 13.2102 14.0267 13.4602 14.1067 13.7202C14.6467 15.4802 15.0766 19.7102 16.5566 20.8502C17.0066 21.2002 17.6667 20.5202 17.3367 20.0702C15.8967 18.0402 12.5067 16.7402 10.4067 15.4902C10.1867 15.3602 9.89666 15.4002 9.71666 15.5802C8.83666 16.4402 7.94663 17.2902 7.05663 18.1502C6.30663 18.8702 4.53666 21.2702 3.52666 21.4702L4.22667 22.1702C4.93667 19.7902 5.57668 17.3802 6.23668 14.9802C6.30668 14.7402 6.19667 14.4602 5.97667 14.3302C4.26667 13.3902 2.56668 12.4502 0.856679 11.5102C0.806679 11.8602 0.766664 12.2102 0.716664 12.5602C3.05666 11.9702 5.39668 11.3702 7.73668 10.7802C8.45668 10.6002 8.14663 9.49019 7.43663 9.67019C5.09663 10.2602 2.75668 10.8602 0.416676 11.4502C-0.0633238 11.5702 -0.153338 12.2602 0.276662 12.5002C1.01666 12.9102 1.74668 13.3102 2.48668 13.7202C3.51668 14.2902 4.90667 15.4702 5.09667 14.7902C4.44667 17.1502 3.81663 19.5202 3.11663 21.8602C2.98663 22.3002 3.40664 22.6502 3.81664 22.5602C5.67664 22.1802 8.16668 18.6502 9.48668 17.3702C9.80668 17.0602 10.1166 16.7602 10.4366 16.4502C9.96663 16.9102 10.1667 16.6702 11.1467 17.2602C12.6267 18.1502 15.3267 19.2002 16.3367 20.6302C16.5967 20.3702 16.8566 20.1102 17.1166 19.8502C17.1066 19.8502 16.4567 17.5002 16.2867 16.9502C16.0667 16.2402 15.8466 15.5302 15.6266 14.8202C15.2966 13.7602 15.5767 13.6302 15.0167 13.9902L21.9966 9.45019C22.4566 9.15019 22.3067 8.37019 21.7067 8.38019C18.5067 8.46019 15.3166 8.53019 12.1166 8.61019C12.7166 8.60019 12.4867 8.79019 12.0967 7.69019C11.7467 6.70019 11.4066 5.71019 11.0566 4.72019C10.5566 3.28019 10.0467 1.84019 9.54668 0.410193C9.37668 -0.0698066 8.53664 -0.199807 8.43664 0.410193C7.95663 3.63019 7.47663 6.85018 6.99663 10.0702C6.88663 10.7902 7.99668 11.1002 8.10668 10.3702L8.13665 10.3802Z" fill="#888198"/>
</svg>
