<svg width="20" height="21" viewBox="0 0 20 21" fill="none" xmlns="http://www.w3.org/2000/svg">
<g clip-path="url(#clip0_589_711)">
<path fill-rule="evenodd" clip-rule="evenodd" d="M1 10.5C1 5.52944 5.02944 1.5 10 1.5C14.9706 1.5 19 5.52944 19 10.5C19 15.4706 14.9706 19.5 10 19.5C5.02944 19.5 1 15.4706 1 10.5Z" stroke="white" stroke-width="1.2"/>
<path d="M8.57486 9.58477C8.56216 9.78435 8.55174 9.97298 8.53569 10.1611C8.53396 10.1821 8.50348 10.2059 8.48088 10.219C8.08813 10.4474 7.69444 10.6743 7.30101 10.9017C7.28189 10.9128 7.26304 10.9244 7.2343 10.9415C7.25957 10.9571 7.27855 10.9698 7.29834 10.9809C7.60714 11.1542 7.91528 11.3289 8.22542 11.4999C8.40402 11.5984 8.55347 11.7281 8.67793 11.889C8.93794 12.2255 9.11828 12.6053 9.27816 12.9957C9.54365 13.644 9.73816 14.3158 9.93307 14.9874C9.99937 15.2161 10.0672 15.4444 10.1496 15.6758C10.1577 15.653 10.1666 15.6302 10.1736 15.607C10.3518 15.0142 10.5238 14.4195 10.7098 13.829C10.8778 13.2954 11.0754 12.7724 11.3514 12.2829C11.3996 12.1976 11.4528 12.1151 11.5065 12.0333C11.6645 11.7924 11.8653 11.6006 12.1233 11.4649C12.415 11.3114 12.6995 11.1446 12.987 10.9833C13.0077 10.9717 13.0279 10.9593 13.0565 10.9423C13.025 10.9233 13.0028 10.9096 12.9802 10.8965C12.5905 10.6715 12.2014 10.4458 11.8106 10.2226C11.7662 10.1972 11.7515 10.169 11.749 10.118C11.7415 9.96469 11.7257 9.81176 11.713 9.65883C11.7112 9.63717 11.7085 9.61551 11.7064 9.59586C11.838 9.58169 11.9652 9.57608 12.0888 9.55295C12.4178 9.49146 12.7068 9.34855 12.9278 9.09228C13.2601 8.70688 13.3043 8.27027 13.1342 7.80306C13.1008 7.71135 13.0527 7.62499 13.0151 7.53462C13.0079 7.51725 13.0106 7.4861 13.0219 7.47206C13.2303 7.217 13.4409 6.96354 13.651 6.70994C13.6536 6.70687 13.6584 6.70567 13.6696 6.69952C13.7044 6.76542 13.7405 6.83066 13.7739 6.89723C14.0935 7.53356 14.2292 8.20798 14.2153 8.91943C14.2049 9.45162 14.2089 9.98461 14.2245 10.5167C14.2633 11.8357 14.5599 13.0919 15.169 14.2684C15.1731 14.2763 15.1763 14.2846 15.1716 14.3027C14.7195 13.9382 14.2674 13.5738 13.8069 13.2026C13.4798 13.7333 13.1545 14.2607 12.8249 14.7954C12.4793 14.4704 12.1393 14.1505 11.7932 13.825C11.2434 14.7172 10.6971 15.6035 10.1447 16.5C9.59218 15.6036 9.04596 14.7173 8.49612 13.8251C8.15056 14.1503 7.8102 14.4704 7.46464 14.7957C7.13672 14.2638 6.81214 13.7372 6.48261 13.2027C6.02609 13.5708 5.57371 13.9354 5.1212 14.3001L5.11157 14.2917C5.12053 14.2724 5.12882 14.2529 5.13858 14.2341C5.60379 13.326 5.88078 12.3619 6.0047 11.3508C6.06766 10.8364 6.07435 10.3199 6.07742 9.80307C6.07969 9.43544 6.07769 9.06782 6.07796 8.7002C6.07836 7.99315 6.27032 7.33744 6.60814 6.72091C6.61215 6.71355 6.61816 6.70727 6.62605 6.69671C6.64022 6.71449 6.65212 6.73013 6.66469 6.74524C6.86227 6.98332 7.05865 7.22248 7.25863 7.45843C7.28764 7.49265 7.28724 7.51618 7.26893 7.5516C7.17629 7.73033 7.09902 7.91495 7.07282 8.11681C7.00517 8.6395 7.23644 9.10204 7.69925 9.369C7.94576 9.51124 8.21272 9.57995 8.49666 9.58463C8.52299 9.58503 8.54933 9.58463 8.57486 9.58463V9.58477Z" fill="white"/>
<path d="M6.25088 5.09468C6.349 5.19641 6.43148 5.30122 6.53295 5.38196C6.66088 5.48382 6.80272 5.56871 6.94228 5.65507C6.98653 5.68248 7.04187 5.69237 7.09267 5.70841C7.17716 5.73488 7.24159 5.7195 7.31137 5.65093C7.99516 4.97971 8.81837 4.59671 9.77152 4.51677C11.0201 4.4121 12.1017 4.7971 13.0023 5.67365C13.0462 5.7163 13.0891 5.73742 13.1436 5.71803C13.2562 5.6782 13.373 5.64411 13.477 5.58729C13.6786 5.47754 13.8449 5.32247 13.987 5.142C14 5.12556 14.013 5.10925 14.0388 5.09989C14.0132 5.16553 13.9898 5.23224 13.9616 5.2968C13.784 5.70333 13.528 6.05879 13.2345 6.38738C12.5727 7.12878 11.8078 7.7401 10.9252 8.20171C10.8563 8.23767 10.809 8.23646 10.7414 8.19155C10.3562 7.93541 9.90092 7.94544 9.51324 8.2124C9.47555 8.23833 9.44761 8.24301 9.40603 8.22149C8.35062 7.67273 7.45308 6.9348 6.7324 5.98633C6.54311 5.73728 6.38656 5.46778 6.27735 5.17288C6.26906 5.15029 6.26171 5.12743 6.25061 5.09468H6.25088Z" fill="white"/>
<path d="M11.7282 10.9313C11.7105 10.9442 11.7024 10.9511 11.6931 10.9565C11.2449 11.2162 10.9274 11.5952 10.6935 12.0508C10.4931 12.4409 10.3601 12.8565 10.2281 13.2726C10.2028 13.3526 10.1773 13.4325 10.1459 13.5313C10.1319 13.4917 10.1242 13.4702 10.1166 13.4487C9.9828 13.0665 9.86156 12.6792 9.7117 12.3033C9.53818 11.8682 9.28485 11.481 8.91629 11.1813C8.80788 11.0931 8.68997 11.0165 8.573 10.9321C8.58035 10.926 8.58998 10.9149 8.60214 10.9079C8.75654 10.819 8.91068 10.7299 9.06602 10.6427C9.16187 10.589 9.20237 10.5085 9.19823 10.3999C9.18713 10.1164 9.19542 9.83433 9.2644 9.55694C9.34046 9.25081 9.49233 8.99348 9.74579 8.80004C10.0023 8.6042 10.2896 8.60527 10.5459 8.80151C10.8441 9.02997 11.0032 9.34025 11.0525 9.70373C11.0831 9.92992 11.0861 10.1605 11.0904 10.3892C11.0926 10.512 11.1337 10.595 11.2436 10.6535C11.4045 10.7392 11.5604 10.8343 11.7286 10.9312L11.7282 10.9313Z" fill="white"/>
<path d="M9.10991 8.77292C8.96741 8.85687 8.82249 8.90272 8.66889 8.9205C8.43214 8.94777 8.20609 8.91409 8.00182 8.78441C7.69115 8.58723 7.65064 8.27482 7.79836 7.96682C7.79996 7.96348 7.80531 7.96187 7.814 7.95599C8.21424 8.26987 8.6455 8.53898 9.10991 8.77292Z" fill="white"/>
<path d="M12.4778 7.95362C12.6167 8.19211 12.6185 8.50987 12.3835 8.71199C12.1631 8.90169 11.9016 8.95062 11.6209 8.9204C11.4673 8.90396 11.3226 8.8569 11.1792 8.77295C11.6443 8.53821 12.0759 8.26964 12.4778 7.95348V7.95362Z" fill="white"/>
</g>
<defs>
<clipPath id="clip0_589_711">
<rect width="20" height="20" fill="white" transform="translate(0 0.5)"/>
</clipPath>
</defs>
</svg>
