<svg width="14" height="14" viewBox="0 0 14 14" fill="none" xmlns="http://www.w3.org/2000/svg">
<path d="M6.5204 0.627158C6.66134 0.148973 7.33866 0.148973 7.4796 0.627158L8.20261 3.08014C8.29267 3.38568 8.64165 3.53024 8.92138 3.37787L11.1671 2.15459C11.6049 1.91613 12.0839 2.39506 11.8454 2.83285L10.6221 5.07862C10.4698 5.35834 10.6143 5.70733 10.9199 5.79739L13.3728 6.5204C13.851 6.66134 13.851 7.33866 13.3728 7.4796L10.9199 8.20261C10.6143 8.29267 10.4698 8.64165 10.6221 8.92138L11.8454 11.1672C12.0839 11.6049 11.6049 12.0839 11.1672 11.8454L8.92138 10.6221C8.64166 10.4698 8.29267 10.6143 8.20261 10.9199L7.4796 13.3728C7.33866 13.851 6.66134 13.851 6.5204 13.3728L5.79739 10.9199C5.70733 10.6143 5.35835 10.4698 5.07862 10.6221L2.83285 11.8454C2.39506 12.0839 1.91613 11.6049 2.15459 11.1672L3.37787 8.92138C3.53024 8.64166 3.38568 8.29267 3.08014 8.20261L0.627158 7.4796C0.148973 7.33866 0.148973 6.66134 0.627158 6.5204L3.08014 5.79739C3.38568 5.70733 3.53024 5.35835 3.37787 5.07862L2.15459 2.83285C1.91613 2.39506 2.39506 1.91613 2.83285 2.15459L5.07862 3.37787C5.35834 3.53024 5.70733 3.38568 5.79739 3.08014L6.5204 0.627158Z" fill="#282828"/>
</svg>
